<?xml version="1.0" encoding="utf-8"?>
<!-- Generator: Adobe Illustrator 16.0.0, SVG Export Plug-In . SVG Version: 6.00 Build 0)  -->
<!DOCTYPE svg PUBLIC "-//W3C//DTD SVG 1.1//EN" "http://www.w3.org/Graphics/SVG/1.1/DTD/svg11.dtd">
<svg version="1.1" id="Layer_1" xmlns="http://www.w3.org/2000/svg" xmlns:xlink="http://www.w3.org/1999/xlink" x="0px" y="0px"
	 width="400px" height="100px" viewBox="0 0 400 100" enable-background="new 0 0 400 100" xml:space="preserve">
<path fill="none" stroke="#15A668" stroke-miterlimit="10" d="M180.191,62.406c-0.223-0.02-0.474,0.191-0.652,0.269
	c-0.22,0.095-0.44,0.183-0.651,0.269"/>
<path fill="none" stroke="#15A668" stroke-miterlimit="10" d="M170.686,72.68c0.034-0.449,0.337-0.937,0.463-1.357
	c0.041-0.026,0.051-0.061,0.092-0.086c0.062-0.247,0.307-0.389,0.446-0.537"/>
<g>
	<path fill="none" d="M152.488,15.382c0.507-2.802,3.681-6.066,5.501-8.142c1.629-1.859,3.949-3.72,6.063-5.002
		c1.034-0.626,1.958-1.021,3.148-0.753"/>
	<path fill="#15A668" d="M179.726,22.941c-0.207,0.387-0.344,0.805-0.49,1.218c-0.069,0.194-0.142,0.383-0.239,0.563
		c-0.087,0.159-0.097,0.32-0.149,0.493c-0.049,0.162-0.163,0.348-0.273,0.476c-0.402,0.481-0.693,1.065-1.053,1.59
		c-1.07,1.563-2.204,3.487-3.874,4.446c-0.499,0.286-0.893,0.528-1.511,0.604c-0.599,0.076-0.965,0.166-1.491-0.236
		c-0.522-0.397-1.025-0.739-1.383-1.267c-0.93-1.373-0.914-2.74-1.075-4.349c-0.216-2.126,0.542-4.231-1.044-6.036
		c-0.581-0.664-1.359-1.229-2.035-1.793c-1.25-1.044-2.737-2.279-4.218-2.761c-0.715-0.233-1.499-0.461-2.282-0.234
		c-0.8,0.232-1.495,0.729-2.29,0.969c-0.739,0.22-1.456,0.241-2.214,0.278c-0.643,0.03-1.244,0.221-1.892,0.159
		c-0.603-0.058-1.091-0.238-1.662-0.431c-0.327-0.113-0.655-0.15-0.966-0.37c-0.474-0.333-0.821-1.257-0.859-1.824
		c-0.058-0.868,0.236-1.529,0.771-2.232c0.606-0.799,1.135-1.604,1.78-2.342c0.653-0.749,1.217-1.602,1.817-2.394
		c1.689-2.223,3.861-4.007,6.172-5.543c0.778-0.516,1.666-0.875,2.559-1.107c0.396-0.104,0.836-0.268,1.231-0.341
		c0.409-0.077,0.821-0.025,1.233-0.047c1.041-0.055,1.931,0.03,2.741,0.771c0.413,0.376,0.371,0.827,0.624,1.304
		c0.11,0.209,0.277,0.446,0.445,0.634c0.331,0.366,0.533,0.896,0.871,1.25c0.236,0.244,0.474,0.567,0.744,0.772
		c0.603,0.458,1.204,0.915,1.806,1.373c1.061,0.806,2.212,1.488,3.258,2.313c0.484,0.384,1.033,0.816,1.557,1.129
		c0.477,0.285,1.114,0.172,1.644,0.255c1.42,0.226,3.156,1.054,3.467,2.61c0.153,0.756,0.458,1.631,0.436,2.403
		c-0.011,0.411-0.159,0.781-0.241,1.164c-0.078,0.37-0.067,0.802-0.146,1.168c-0.174,0.825-0.174,1.65-0.503,2.399
		C180.561,20.938,180.225,22,179.726,22.941z"/>
	<circle fill="#FFFFFF" cx="164.568" cy="8.458" r="3.093"/>
	<circle fill="#FFFFFF" cx="174.314" cy="13.64" r="1.781"/>
	<circle fill="#FFFFFF" cx="174.762" cy="18.709" r="1.78"/>
</g>
<rect x="178.664" y="86.762" transform="matrix(-0.7074 -0.7069 0.7069 -0.7074 245.1565 277.8978)" fill="#15A668" stroke="#15A668" stroke-miterlimit="10" width="2.879" height="2.878"/>
<g>
	<g>
		<path fill="#15A668" d="M170.198,72.605c-0.349,6.406,4.964,10.637,8.589,15.217c0.4,0.506,1.103-0.207,0.707-0.707
			c-3.451-4.361-8.628-8.405-8.296-14.51C171.233,71.961,170.233,71.964,170.198,72.605L170.198,72.605z"/>
	</g>
</g>
<g>
	<path fill="#FFFFFF" d="M36.99,41.365c1.045,1.181,1.848,2.488,2.404,3.922c0.557,1.435,0.835,2.962,0.835,4.581
		c0,2.194-0.43,4.184-1.29,5.973c-0.861,1.79-2.075,3.323-3.645,4.604c-1.569,1.283-3.434,2.277-5.592,2.986
		c-2.159,0.709-4.538,1.063-7.137,1.063c-2.126,0-3.864-0.22-5.213-0.658c-0.506,0.642-1.005,1.284-1.494,1.924
		c-0.489,0.642-0.734,1.3-0.734,1.974c0,0.811,0.463,1.442,1.392,1.897c0.928,0.456,2.058,0.804,3.391,1.038
		c1.333,0.236,2.741,0.389,4.227,0.456c1.484,0.069,2.8,0.101,3.947,0.101c2.058,0,4.108,0.137,6.15,0.405
		c2.042,0.271,3.872,0.759,5.492,1.468c1.62,0.709,2.936,1.688,3.948,2.937c1.013,1.247,1.519,2.853,1.519,4.809
		c0,1.854-0.43,3.568-1.291,5.138c-0.861,1.568-1.982,2.992-3.366,4.277c-1.384,1.281-2.961,2.42-4.732,3.415
		c-1.771,0.994-3.586,1.822-5.441,2.48c-1.855,0.657-3.669,1.155-5.44,1.493c-1.772,0.336-3.333,0.506-4.682,0.506
		c-1.587,0-3.273-0.221-5.062-0.658c-1.789-0.438-3.434-1.096-4.935-1.973c-1.502-0.881-2.751-1.969-3.746-3.266
		c-0.996-1.3-1.493-2.826-1.493-4.581c0-1.046,0.177-2.05,0.531-3.012s0.818-1.906,1.392-2.834c0.574-0.931,1.248-1.849,2.025-2.759
		c0.775-0.912,1.585-1.84,2.429-2.784c-0.473-0.236-0.919-0.558-1.341-0.961c-0.422-0.405-0.785-0.854-1.088-1.343
		c-0.304-0.486-0.549-0.985-0.734-1.492c-0.186-0.506-0.279-0.994-0.279-1.469c0-1.043,0.473-2.217,1.417-3.518
		c0.944-1.298,2.497-2.961,4.656-4.984c-2.328-1.183-4.143-2.816-5.441-4.91C7.27,55.52,6.62,53.191,6.62,50.627
		c0-2.125,0.43-4.074,1.291-5.846c0.861-1.772,2.075-3.281,3.645-4.53c1.569-1.247,3.424-2.219,5.567-2.91
		c2.143-0.691,4.513-1.038,7.111-1.038c2.024,0,3.897,0.253,5.618,0.76c1.721,0.506,3.239,1.197,4.555,2.075
		c3.272-0.843,5.837-1.484,7.693-1.923c1.855-0.438,3.019-0.658,3.492-0.658c0.944,0,1.417,0.507,1.417,1.519
		c0,0.641-0.034,1.299-0.102,1.974c-0.068,0.676-0.151,1.4-0.253,2.177L36.99,41.365z M14.72,77.706
		c-0.878,1.214-1.552,2.294-2.024,3.239c-0.473,0.941-0.708,1.99-0.708,3.138c0,1.417,0.447,2.614,1.341,3.594
		s2.025,1.771,3.392,2.38c1.367,0.607,2.842,1.036,4.429,1.289c1.585,0.254,3.087,0.381,4.504,0.381
		c1.147,0,2.429-0.119,3.847-0.354s2.733-0.633,3.948-1.188c1.215-0.557,2.235-1.301,3.063-2.228c0.827-0.931,1.24-2.101,1.24-3.519
		c0-1.215-0.354-2.185-1.063-2.91c-0.709-0.728-1.628-1.283-2.758-1.67c-1.131-0.39-2.422-0.643-3.872-0.76
		c-1.451-0.119-2.903-0.178-4.354-0.178c-0.777,0-1.627-0.018-2.556-0.051c-0.929-0.033-1.881-0.102-2.86-0.202
		s-1.948-0.228-2.91-0.38C16.416,78.136,15.53,77.939,14.72,77.706z M23.78,60.345c1.316,0,2.455-0.233,3.417-0.709
		c0.961-0.472,1.746-1.104,2.353-1.896c0.608-0.792,1.063-1.722,1.367-2.784c0.303-1.063,0.455-2.184,0.455-3.365
		c0-1.348-0.16-2.69-0.48-4.023c-0.322-1.333-0.818-2.531-1.493-3.595c-0.676-1.063-1.544-1.914-2.607-2.556
		c-1.063-0.64-2.32-0.962-3.771-0.962c-1.316,0-2.447,0.246-3.391,0.734c-0.945,0.489-1.721,1.139-2.329,1.948
		c-0.607,0.812-1.055,1.756-1.341,2.834c-0.287,1.081-0.43,2.211-0.43,3.392c0,1.316,0.152,2.632,0.456,3.949
		c0.304,1.314,0.785,2.498,1.442,3.543c0.658,1.045,1.51,1.891,2.556,2.529C21.03,60.023,22.295,60.345,23.78,60.345z"/>
	<path fill="#FFFFFF" d="M52.529,40.504c1.754-0.708,3.484-1.332,5.188-1.872c1.704-0.54,3.307-0.987,4.809-1.341
		c1.501-0.354,2.867-0.625,4.1-0.811c1.231-0.185,2.252-0.278,3.062-0.278c2.43,0,4.471,0.278,6.125,0.835
		c1.654,0.557,2.987,1.443,3.999,2.657c1.013,1.215,1.737,2.759,2.176,4.632c0.439,1.872,0.641,4.125,0.608,6.757l-0.253,16.5
		c-0.035,1.046,0.033,2.024,0.202,2.937c0.169,0.91,0.355,1.805,0.557,2.683c0.033,0.032,0.051,0.17,0.051,0.403
		c0,0.508-0.337,0.812-1.013,0.912c-0.438,0.102-0.936,0.193-1.493,0.278c-0.557,0.082-1.123,0.151-1.695,0.202
		c-0.575,0.051-1.148,0.083-1.722,0.102c-0.574,0.017-1.08,0.025-1.518,0.025c-0.372,0-0.65-0.104-0.835-0.305
		c-0.186-0.202-0.329-0.506-0.431-0.911l-0.657-2.431c-1.284,0.576-2.6,1.106-3.948,1.596c-1.35,0.49-2.641,0.91-3.872,1.266
		c-1.232,0.354-2.354,0.633-3.366,0.835s-1.84,0.304-2.48,0.304c-1.789,0-3.341-0.328-4.656-0.986
		c-1.316-0.657-2.397-1.484-3.24-2.48c-0.844-0.992-1.468-2.091-1.873-3.289c-0.405-1.197-0.607-2.334-0.607-3.416
		c0-1.923,0.346-3.551,1.038-4.885c0.691-1.332,1.627-2.438,2.809-3.314c1.045-0.776,2.27-1.418,3.669-1.924
		s2.943-0.902,4.631-1.188c1.687-0.286,3.509-0.498,5.466-0.634c1.956-0.133,4.015-0.234,6.175-0.303l0.05-1.722
		c0.033-1.552-0.06-2.944-0.278-4.176c-0.221-1.231-0.616-2.269-1.189-3.113c-0.574-0.843-1.35-1.484-2.329-1.923
		c-0.979-0.438-2.209-0.658-3.694-0.658c-1.823,0-3.721,0.203-5.694,0.607c-1.974,0.405-4.227,1.013-6.757,1.822L52.529,40.504z
		 M73.483,56.498c-1.587,0.102-3.071,0.195-4.455,0.279c-1.384,0.082-2.649,0.209-3.796,0.379s-2.159,0.43-3.037,0.783
		c-0.878,0.354-1.587,0.854-2.126,1.494c-0.405,0.475-0.742,1.063-1.012,1.771c-0.271,0.709-0.405,1.485-0.405,2.329
		c0,0.708,0.109,1.435,0.329,2.176c0.219,0.743,0.607,1.426,1.164,2.05c0.557,0.626,1.308,1.14,2.252,1.544s2.143,0.607,3.594,0.607
		c0.203,0,0.532-0.032,0.987-0.102c0.456-0.067,1.013-0.179,1.671-0.328c0.658-0.152,1.392-0.362,2.201-0.633
		c0.81-0.271,1.637-0.608,2.48-1.014L73.483,56.498z"/>
	<path fill="#FFFFFF" d="M89.781,39.392c1.822-0.507,3.5-0.938,5.036-1.292c1.535-0.354,2.885-0.649,4.049-0.886
		c1.164-0.235,2.117-0.405,2.859-0.506c0.742-0.101,1.232-0.152,1.469-0.152c1.012,0,1.569,0.608,1.67,1.823l0.152,2.176
		c1.518-0.607,3.028-1.172,4.53-1.695c1.501-0.523,2.936-0.969,4.302-1.341c1.367-0.371,2.633-0.666,3.796-0.886
		c1.164-0.219,2.151-0.329,2.961-0.329c2.227,0,4.057,0.414,5.492,1.24c1.434,0.828,2.538,2,3.315,3.519
		c3.577-1.62,6.808-2.817,9.693-3.594c2.885-0.776,5.289-1.164,7.213-1.164c1.922,0,3.575,0.304,4.959,0.911
		c1.383,0.608,2.514,1.451,3.392,2.531c0.877,1.08,1.526,2.388,1.949,3.922c0.422,1.537,0.632,3.232,0.632,5.088L156.996,73.1
		c0,0.811-0.405,1.283-1.215,1.418c-0.539,0.102-1.138,0.193-1.796,0.278c-0.658,0.082-1.299,0.151-1.923,0.202
		c-0.625,0.051-1.198,0.083-1.721,0.102c-0.524,0.017-0.903,0.025-1.139,0.025c-0.81,0-1.215-0.424-1.215-1.268l0.253-20.144v-0.759
		c0-1.822-0.144-3.417-0.43-4.783c-0.287-1.367-0.768-2.514-1.443-3.442c-0.675-0.928-1.561-1.627-2.657-2.101
		c-1.097-0.473-2.455-0.708-4.075-0.708c-0.271,0-0.691,0.043-1.265,0.126c-0.575,0.085-1.258,0.221-2.05,0.405
		c-0.793,0.186-1.679,0.448-2.658,0.784c-0.979,0.338-1.991,0.759-3.037,1.266c0.337,1.214,0.506,2.801,0.506,4.758l-0.252,23.84
		c0,0.811-0.405,1.283-1.215,1.418c-0.54,0.102-1.138,0.193-1.797,0.278c-0.658,0.082-1.298,0.151-1.923,0.202
		s-1.198,0.083-1.721,0.102c-0.524,0.017-0.903,0.025-1.139,0.025c-0.81,0-1.214-0.424-1.214-1.268l0.253-20.144v-0.759
		c0-3.611-0.608-6.36-1.823-8.251c-1.215-1.89-3.341-2.835-6.377-2.835c-0.574,0-1.662,0.17-3.264,0.507
		c-1.603,0.338-3.485,0.995-5.644,1.974V73.1c0,0.811-0.405,1.283-1.215,1.418c-0.54,0.102-1.139,0.193-1.797,0.278
		c-0.658,0.082-1.299,0.151-1.923,0.202c-0.625,0.051-1.198,0.083-1.722,0.102c-0.523,0.017-0.903,0.025-1.139,0.025
		c-0.81,0-1.214-0.424-1.214-1.268V46.274c0-1.789-0.287-3.012-0.861-3.67c-0.575-0.657-1.485-0.986-2.733-0.986
		c-0.337,0-0.684,0.008-1.038,0.025s-0.784,0.075-1.291,0.177L89.781,39.392z"/>
	<path fill="#FFFFFF" d="M178.304,36.556c-0.236,0-0.734,0.051-1.493,0.152c-0.76,0.101-1.738,0.271-2.935,0.506
		c-1.198,0.236-2.573,0.532-4.125,0.886c-1.552,0.354-3.239,0.785-5.061,1.292l0.304,2.429c0.506-0.102,0.936-0.16,1.29-0.177
		c0.355-0.018,0.717-0.025,1.089-0.025c1.214,0,2.107,0.329,2.682,0.986c0.575,0.658,0.861,1.881,0.861,3.67v27.584
		c0,0.843,0.405,1.267,1.215,1.267c0.27,0,0.658-0.01,1.164-0.026c0.506-0.018,1.063-0.05,1.67-0.101
		c0.608-0.051,1.24-0.12,1.898-0.202c0.658-0.085,1.274-0.178,1.848-0.279c0.81-0.134,1.215-0.606,1.215-1.416V38.379
		C179.924,37.164,179.384,36.556,178.304,36.556z M171.029,50.119c0-1.209,0-2.82,0-4.028
		C171.029,47.299,171.029,48.91,171.029,50.119z"/>
	<path fill="#FFFFFF" d="M185.492,39.392c1.822-0.507,3.5-0.938,5.036-1.292c1.535-0.354,2.886-0.649,4.049-0.886
		c1.165-0.235,2.117-0.405,2.86-0.506c0.741-0.101,1.232-0.152,1.468-0.152c1.012,0,1.569,0.608,1.67,1.823l0.151,2.125
		c1.551-0.573,3.112-1.112,4.683-1.619c1.569-0.506,3.062-0.953,4.479-1.342c1.416-0.387,2.715-0.691,3.897-0.911
		c1.182-0.219,2.176-0.329,2.985-0.329c1.924,0,3.568,0.304,4.936,0.911c1.366,0.608,2.486,1.451,3.366,2.531
		c0.877,1.08,1.518,2.388,1.923,3.922c0.404,1.537,0.605,3.232,0.605,5.088L227.35,73.1c0,0.811-0.404,1.283-1.216,1.418
		c-0.538,0.102-1.138,0.193-1.796,0.278c-0.658,0.082-1.3,0.151-1.924,0.202c-0.625,0.051-1.197,0.083-1.721,0.102
		c-0.524,0.017-0.904,0.025-1.139,0.025c-0.812,0-1.217-0.424-1.217-1.268l0.254-20.144v-0.759c0-1.822-0.145-3.417-0.43-4.783
		c-0.287-1.367-0.768-2.522-1.441-3.468c-0.678-0.944-1.554-1.652-2.634-2.126c-1.081-0.473-2.429-0.709-4.049-0.709
		c-0.606,0-1.746,0.17-3.416,0.507c-1.672,0.338-3.638,0.995-5.896,1.974V73.1c0,0.811-0.406,1.283-1.215,1.418
		c-0.54,0.102-1.139,0.193-1.797,0.278c-0.658,0.082-1.299,0.151-1.923,0.202c-0.625,0.051-1.199,0.083-1.722,0.102
		c-0.523,0.017-0.902,0.025-1.138,0.025c-0.81,0-1.215-0.424-1.215-1.268V46.274c0-1.789-0.287-3.012-0.861-3.67
		c-0.573-0.657-1.485-0.986-2.733-0.986c-0.337,0-0.683,0.008-1.038,0.025c-0.354,0.017-0.784,0.075-1.29,0.177L185.492,39.392z"/>
	<path fill="#FFFFFF" d="M263.943,41.365c1.043,1.181,1.848,2.488,2.402,3.922c0.559,1.435,0.836,2.962,0.836,4.581
		c0,2.194-0.431,4.184-1.291,5.973c-0.859,1.79-2.074,3.323-3.645,4.604c-1.569,1.283-3.434,2.277-5.594,2.986
		c-2.158,0.709-4.537,1.063-7.137,1.063c-2.125,0-3.863-0.22-5.211-0.658c-0.508,0.642-1.008,1.284-1.494,1.924
		c-0.49,0.642-0.733,1.3-0.733,1.974c0,0.811,0.462,1.442,1.392,1.897c0.93,0.456,2.057,0.804,3.393,1.038
		c1.332,0.236,2.74,0.389,4.226,0.456c1.483,0.069,2.802,0.101,3.947,0.101c2.058,0,4.106,0.137,6.149,0.405
		c2.041,0.271,3.873,0.759,5.491,1.468c1.62,0.709,2.937,1.688,3.948,2.937c1.014,1.247,1.52,2.853,1.52,4.809
		c0,1.854-0.432,3.568-1.291,5.138c-0.86,1.568-1.982,2.992-3.367,4.277c-1.383,1.281-2.959,2.42-4.73,3.415
		c-1.771,0.994-3.587,1.822-5.441,2.48c-1.855,0.657-3.67,1.155-5.439,1.493c-1.771,0.336-3.334,0.506-4.682,0.506
		c-1.588,0-3.273-0.221-5.063-0.658c-1.79-0.438-3.436-1.096-4.936-1.973c-1.502-0.881-2.752-1.969-3.745-3.266
		c-0.995-1.3-1.494-2.826-1.494-4.581c0-1.046,0.178-2.05,0.532-3.012c0.354-0.962,0.816-1.906,1.392-2.834
		c0.574-0.931,1.247-1.849,2.024-2.759c0.775-0.912,1.587-1.84,2.43-2.784c-0.475-0.236-0.919-0.558-1.341-0.961
		c-0.423-0.405-0.785-0.854-1.089-1.343c-0.305-0.486-0.549-0.985-0.733-1.492c-0.187-0.506-0.278-0.994-0.278-1.469
		c0-1.043,0.474-2.217,1.418-3.518c0.943-1.298,2.496-2.961,4.655-4.984c-2.327-1.183-4.143-2.816-5.44-4.91
		c-1.299-2.092-1.948-4.42-1.948-6.984c0-2.125,0.431-4.074,1.291-5.846c0.86-1.772,2.075-3.281,3.644-4.53
		c1.57-1.247,3.424-2.219,5.568-2.91c2.143-0.691,4.512-1.038,7.111-1.038c2.023,0,3.896,0.253,5.617,0.76
		c1.721,0.506,3.238,1.197,4.555,2.075c3.272-0.843,5.839-1.484,7.695-1.923c1.854-0.438,3.019-0.658,3.491-0.658
		c0.943,0,1.416,0.507,1.416,1.519c0,0.641-0.032,1.299-0.101,1.974c-0.068,0.676-0.152,1.4-0.254,2.177L263.943,41.365z
		 M241.673,77.706c-0.879,1.214-1.552,2.294-2.024,3.239c-0.474,0.941-0.707,1.99-0.707,3.138c0,1.417,0.445,2.614,1.34,3.594
		s2.025,1.771,3.393,2.38c1.366,0.606,2.842,1.036,4.428,1.289c1.586,0.254,3.088,0.381,4.506,0.381
		c1.146,0,2.429-0.119,3.846-0.354c1.418-0.235,2.734-0.633,3.949-1.188c1.215-0.557,2.232-1.301,3.062-2.228
		c0.827-0.931,1.241-2.101,1.241-3.519c0-1.215-0.355-2.185-1.064-2.91c-0.707-0.728-1.627-1.283-2.759-1.67
		c-1.131-0.39-2.422-0.643-3.87-0.76c-1.451-0.119-2.904-0.178-4.354-0.178c-0.778,0-1.629-0.018-2.557-0.051
		c-0.93-0.033-1.881-0.102-2.859-0.202s-1.948-0.228-2.91-0.38C243.368,78.136,242.482,77.939,241.673,77.706z M250.732,60.345
		c1.315,0,2.455-0.233,3.416-0.709c0.961-0.472,1.746-1.104,2.354-1.896c0.607-0.792,1.063-1.722,1.367-2.784
		c0.304-1.063,0.456-2.184,0.456-3.365c0-1.348-0.161-2.69-0.48-4.023c-0.321-1.333-0.819-2.531-1.493-3.595
		c-0.677-1.063-1.543-1.914-2.606-2.556c-1.063-0.64-2.32-0.962-3.771-0.962c-1.315,0-2.447,0.246-3.393,0.734
		c-0.943,0.489-1.721,1.139-2.327,1.948c-0.608,0.812-1.056,1.756-1.342,2.834c-0.288,1.081-0.431,2.211-0.431,3.392
		c0,1.316,0.151,2.632,0.455,3.949c0.304,1.314,0.785,2.498,1.442,3.543c0.658,1.045,1.511,1.891,2.556,2.529
		C247.98,60.023,249.246,60.345,250.732,60.345z"/>
	<path fill="#FFFFFF" d="M290.161,40.2c1.688-0.506,3.374-0.994,5.062-1.467s3.291-0.886,4.81-1.24
		c1.518-0.355,2.892-0.641,4.125-0.861c1.231-0.219,2.252-0.329,3.061-0.329c1.958,0,3.729,0.549,5.315,1.646
		c1.586,1.097,2.936,2.505,4.049,4.227c1.113,1.721,1.975,3.636,2.582,5.745c0.607,2.108,0.91,4.158,0.91,6.148
		c0,3.611-0.648,6.75-1.947,9.414c-1.301,2.666-3.046,4.894-5.239,6.682c-2.192,1.79-4.731,3.121-7.618,3.998
		c-2.885,0.878-5.912,1.316-9.084,1.316c-1.553,0-3.112-0.095-4.682-0.278c-1.57-0.187-3.038-0.448-4.404-0.784
		c-1.365-0.336-2.572-0.727-3.617-1.164c-1.047-0.438-1.822-0.911-2.33-1.418V16.058c0-1.788-0.285-3.012-0.859-3.669
		c-0.574-0.657-1.518-0.987-2.834-0.987c-0.643,0-1.334,0.051-2.076,0.152l-0.303-2.43c3.712-1.012,6.766-1.729,9.161-2.151
		c2.396-0.422,3.829-0.633,4.302-0.633c1.08,0,1.62,0.607,1.62,1.822V40.2H290.161z M290.161,65.255c0,1.113,0.278,2.05,0.835,2.81
		s1.257,1.365,2.102,1.821c0.844,0.455,1.771,0.784,2.783,0.987c1.012,0.202,1.99,0.303,2.936,0.303c8.199,0,12.3-4.217,12.3-12.652
		c0-1.924-0.229-3.879-0.685-5.871c-0.455-1.99-1.13-3.796-2.023-5.416c-0.896-1.62-1.991-2.937-3.29-3.948
		c-1.3-1.011-2.792-1.519-4.479-1.519c-0.642,0-1.906,0.178-3.797,0.531c-1.889,0.354-4.115,0.92-6.681,1.695V65.255z"/>
	<path fill="#FFFFFF" d="M361.881,70.164c-1.62,0.777-3.324,1.493-5.112,2.15c-1.787,0.658-3.533,1.224-5.237,1.695
		c-1.704,0.473-3.29,0.835-4.758,1.088c-1.469,0.254-2.69,0.381-3.67,0.381c-2.732,0-5.153-0.516-7.264-1.545
		c-2.107-1.027-3.881-2.396-5.313-4.1c-1.436-1.702-2.522-3.67-3.266-5.896c-0.743-2.226-1.112-4.537-1.112-6.935
		c0-3.104,0.572-5.929,1.722-8.478c1.146-2.547,2.706-4.724,4.682-6.529c1.975-1.804,4.275-3.206,6.908-4.201
		c2.632-0.995,5.416-1.493,8.352-1.493c1.924,0,3.628,0.296,5.111,0.886c1.484,0.591,2.733,1.4,3.745,2.429
		c1.013,1.03,1.788,2.271,2.328,3.721c0.541,1.45,0.811,3.037,0.811,4.757c0,1.486-0.286,3.341-0.859,5.568l-23.789,1.267
		c0.136,2.125,0.557,4.065,1.266,5.819c0.708,1.755,1.713,3.272,3.012,4.556c1.301,1.283,2.887,2.277,4.758,2.985
		c1.873,0.709,4.022,1.063,6.453,1.063c1.62,0,3.35-0.194,5.188-0.582c1.838-0.388,3.483-0.869,4.935-1.443L361.881,70.164z
		 M350.645,50.729c0.103-0.473,0.17-0.929,0.202-1.367c0.034-0.438,0.053-0.893,0.053-1.366c0-0.944-0.146-1.839-0.433-2.683
		c-0.286-0.843-0.699-1.576-1.239-2.201s-1.215-1.114-2.023-1.468c-0.812-0.354-1.722-0.532-2.733-0.532
		c-1.62,0-3.012,0.296-4.176,0.886c-1.165,0.591-2.126,1.375-2.885,2.354s-1.324,2.118-1.696,3.416
		c-0.37,1.3-0.573,2.658-0.605,4.075L350.645,50.729z"/>
	<path fill="#FFFFFF" d="M364.664,38.682c0.877-0.067,1.84-0.134,2.886-0.202c1.046-0.067,2.075-0.135,3.087-0.203v-7.794
		c0-0.709,0.067-1.222,0.203-1.544c0.135-0.321,0.438-0.564,0.91-0.734c0.642-0.235,1.307-0.473,1.999-0.708
		s1.351-0.447,1.975-0.632c0.625-0.186,1.182-0.337,1.67-0.456c0.489-0.118,0.869-0.177,1.14-0.177c0.743,0,1.114,0.423,1.114,1.266
		v10.326c2.26-0.102,4.344-0.177,6.251-0.228c1.905-0.051,3.382-0.076,4.429-0.076c0.27,0,0.515,0.084,0.732,0.253
		c0.221,0.17,0.329,0.438,0.329,0.81v0.101l-0.203,3.138l-11.538,0.05v21.513c0,2.26,0.606,3.904,1.821,4.934
		c1.214,1.031,2.801,1.545,4.758,1.545c0.91,0,1.932-0.108,3.063-0.329c1.131-0.22,2.455-0.614,3.973-1.189l1.063,3.087
		c-1.282,0.575-2.59,1.107-3.922,1.596c-1.334,0.488-2.607,0.92-3.822,1.291s-2.32,0.658-3.314,0.859
		c-0.995,0.202-1.764,0.305-2.303,0.305c-1.52,0-2.911-0.236-4.176-0.709c-1.266-0.474-2.354-1.182-3.266-2.127
		c-0.911-0.941-1.619-2.101-2.126-3.467c-0.506-1.365-0.76-2.941-0.76-4.731V41.922l-5.819,0.151L364.664,38.682z"/>
</g>
<g>
	<g>
		<path fill="#15A668" d="M171.464,9.379c1.851-5.457,7.796-7.158,12.284-3.614c3.376,2.667,4.241,7.462,3.676,11.496
			c-1.232,8.801-9.479,14.07-16.901,17.304c-2.562,1.116-5.091,2.458-6.492,4.978c-1.242,2.233-1.229,5.642,1.175,7.088
			c1.512,0.909,3.042,1.148,4.767,1.334c2.47,0.267,4.891,0.934,7.131,2.003c2.284,1.091,4.677,3.039,5.603,5.451
			c1.019,2.653-0.407,5.394-2.841,6.549c-0.582,0.276-0.074,1.14,0.505,0.863c3.06-1.454,4.629-5.203,3.034-8.361
			c-1.998-3.954-6.438-6.046-10.542-7.022c-2.543-0.605-5.372-0.296-7.536-1.979c-2.761-2.148-0.273-6.353,1.764-7.917
			c3.188-2.447,7.746-2.853,10.724-5.576c1.859-1.699,3.954-2.773,5.67-4.685c1.753-1.954,2.997-4.325,4.077-6.696
			c1.508-3.311,1.421-7.868-0.006-11.18c-1.354-3.141-4.298-6.343-7.944-6.597c-4.306-0.3-7.746,2.27-9.11,6.296
			C170.292,9.726,171.258,9.987,171.464,9.379L171.464,9.379z"/>
	</g>
</g>
</svg>
